<svg class="h-5 w-5" xmlns="http://www.w3.org/2000/svg" viewBox="0 0 125.5752 144.6496"><g><path fill="#fff" d="M82.861,51.8818V35.9594L41.3622,12.0413,1.7115,34.8831A3.4155,3.4155,0,0,0,0,37.8557V51.8134l41.362-23.9179Z"></path><path fill="#fff" d="M90.3565,80.8225l13.81-8.2182V23.3165L64.5161.4578a3.4274,3.4274,0,0,0-3.4226,0L49.0118,7.4965,90.3565,31.3289Z"></path><path fill="#fff" d="M43.1591,35.7714,1.6944,59.6894A3.42,3.42,0,0,0,.4622,60.9367,3.2583,3.2583,0,0,0,0,62.6451V144.65H13.7761V68.6929l43.6894-25.131Z"></path><path fill="#fff" d="M35.2015,128.5042V64.729l-13.793,8.0469V144.53h13.793Z"></path><path fill="#fff" d="M84.059,107.44l41.499-23.9181V37.7533a3.257,3.257,0,0,0-.462-1.7085,3.3151,3.3151,0,0,0-1.2323-1.2471L111.765,27.7419V75.424L70.2831,99.3421Z"></path><path fill="#fff" d="M41.3623,91.5344l.1369,15.9223,42.697,24.6527,39.6675-22.8416a3.4142,3.4142,0,0,0,1.7115-2.9556V92.3548L84.2134,116.2722Z"></path><path fill="#fff" d="M41.3623,116.3066v15.94L61.0764,143.59a3.4042,3.4042,0,0,0,3.4226,0l12.0988-6.8334Z"></path></g></svg>