<svg xmlns="http://www.w3.org/2000/svg" fill="#DDDDDD" viewBox="0 0 1024 265"><path d="M234.42,143.91h44.93v20.66H235.67q-13.59,0-22.4-8.46t-8.8-22.05q0-13.74,8.8-22.47t22.4-8.74h53.52V86.35H235.67q-20.94,0-34.32,12.76T188,132.67q0,20.94,13.52,34.67t34.18,13.73h60.18V128.79H234.42Z" transform="translate(-3 -2.5)"></path><path d="M377,89.12c-2.59-2-5.09-3.05-7.48-3.05-2.22,0-4.72,1.07-7.49,3.19a22.16,22.16,0,0,0-5.41,6.11l-51.44,85.7h21.18L369,110.73l16.42,27.21h-25l-9.95,16.51h44.95l15.84,26.49,21.29.13L382.37,95.36A21.92,21.92,0,0,0,377,89.12Z" transform="translate(-3 -2.5)"></path><path d="M557.36,87.87A9.46,9.46,0,0,0,550.71,85q-5.4,0-10.26,9.3l-31.82,62.19-31.7-62.12Q472.1,85,466.71,85a9.12,9.12,0,0,0-6.57,2.78,12.82,12.82,0,0,0-3.66,6.51l-21.14,87h18.71l13.59-66.29,31.76,61q3.32,6.39,9.7,6.38,5.68,0,8.88-6.24l31.75-61.16,13.73,66.29H582L561,94.25A13.76,13.76,0,0,0,557.36,87.87Z" transform="translate(-3 -2.5)"></path><rect x="620.22" y="122.27" width="54.08" height="16.5"></rect><polygon points="596.78 178.57 678.59 178.57 678.59 162.07 613.28 162.07 613.28 100.35 678.59 100.35 678.59 83.85 596.78 83.85 596.78 178.57"></polygon><path d="M791.68,130q-9.15-7.91-22.87-7.91H724.16a13,13,0,0,1-8-2.49,8.34,8.34,0,0,1-3.33-7.08,8.54,8.54,0,0,1,3.33-7.07,12.52,12.52,0,0,1,8-2.64h71.41V86.35H724.16q-12.35,0-20.66,6.8a23.8,23.8,0,0,0-8.88,19.27q0,12.08,8.88,19.42,8.31,6.79,20.66,6.8h44.65a22.13,22.13,0,0,1,11.64,2.91q5.84,3.47,5.83,9.84a11.58,11.58,0,0,1-5.69,10.13,22.17,22.17,0,0,1-11.78,3H696.57v16.5h72.24q13.73,0,22.87-7.62,9.57-8.19,9.57-21.64T791.68,130Z" transform="translate(-3 -2.5)"></path><path d="M887.36,86.35H860.88q-20.94,0-34.32,12.76t-13.38,33.56q0,20.94,13.52,34.67t34.18,13.73h26.48q20.79,0,34.25-13.73t13.45-34.67q0-20.8-13.31-33.56T887.36,86.35Zm22.53,69.76q-8.8,8.46-22.53,8.46H860.88q-13.59,0-22.4-8.46t-8.8-22.05q0-13.74,8.8-22.47t22.4-8.74h26.48q13.73,0,22.53,8.74t8.81,22.47Q918.7,147.65,909.89,156.11Z" transform="translate(-3 -2.5)"></path><polygon points="957.99 162.07 957.99 83.85 941.49 83.85 941.49 178.57 1023.16 178.57 1023.16 162.07 957.99 162.07"></polygon><path d="M161.47,85.59c-1.4-.36-2.81-.74-4.23-1.12-25-6.73-53.09-16.86-75-27.92-21.91,11.06-50.05,21.19-75,27.92-1.42.38-2.83.76-4.23,1.12.13,1.68.32,3.36.59,5a296.3,296.3,0,0,1,3.65,46.45A295.89,295.89,0,0,1,3.83,181.9a295.41,295.41,0,0,1,70.06,85.6h1V170.13h0l-50-40.07V107.2l48.52,28.17-2.94,15.95,11.59,13.24L94,151.32l-3-16.12,48.52-28V130l-50,40.17V267.5h1a295.53,295.53,0,0,1,70.05-85.6,296.55,296.55,0,0,1,.25-91.29C161.15,89,161.34,87.27,161.47,85.59Z" transform="translate(-3 -2.5)"></path><path d="M6.65,77.34l2-.54A365,365,0,0,0,82.23,49.2,365.34,365.34,0,0,0,155.8,76.8c.67.18,1.34.37,2,.54l.09,0c0-.47,0-.94,0-1.41A75.76,75.76,0,0,0,100.74,2.5L92.87,19.75,89.58,27H74.88l-3.28-7.2L63.73,2.5A75.77,75.77,0,0,0,6.51,76c0,.47,0,.94,0,1.41Z" transform="translate(-3 -2.5)"></path><rect x="875.44" y="228.11" width="148.56" height="1.98"></rect><rect x="184.13" y="228.11" width="148.56" height="1.98"></rect><path d="M403,242.17h-5.23l-5.7-5.74h-7.68v-3.55h9.56a6,6,0,0,0,3.32-.87,3.26,3.26,0,0,0,1.52-2.88q0-3.81-4.84-3.81H382.25v16.85H378.7V221.76h14.63a10.78,10.78,0,0,1,6.36,1.71,7.1,7.1,0,0,1,1.16,10.15,8,8,0,0,1-4.08,2.42Z" transform="translate(-3 -2.5)"></path><path d="M460.44,231.74a10.2,10.2,0,0,1-2.9,7.47,9.89,9.89,0,0,1-7.37,3h-5.71a9.89,9.89,0,0,1-7.36-3,10.21,10.21,0,0,1-2.91-7.47,9.54,9.54,0,0,1,2.88-7.23,10.29,10.29,0,0,1,7.39-2.75h5.71a10.26,10.26,0,0,1,7.4,2.75A9.57,9.57,0,0,1,460.44,231.74Zm-3.52.3a6.47,6.47,0,0,0-6.75-6.72h-5.71a6.47,6.47,0,0,0-6.72,6.72,6.27,6.27,0,0,0,1.9,4.75,6.64,6.64,0,0,0,4.82,1.82h5.71a6.68,6.68,0,0,0,4.85-1.82A6.3,6.3,0,0,0,456.92,232Z" transform="translate(-3 -2.5)"></path><path d="M514.68,236.22a4.93,4.93,0,0,1-.66,2.48q-2,3.44-7.47,3.44H491.92V221.73h14.63q5.24,0,7.32,3.26a5.3,5.3,0,0,1-1.34,7.08A5.09,5.09,0,0,1,514.68,236.22Zm-3.44-8.45a2.15,2.15,0,0,0-1.49-2,6.57,6.57,0,0,0-2.66-.51H495.47v13.29h11.62a7.23,7.23,0,0,0,2.6-.44c1-.44,1.55-1.07,1.55-1.89s-.51-1.47-1.55-1.91a6.77,6.77,0,0,0-2.6-.48h-9.53v-3.55h9.53a6.26,6.26,0,0,0,2.66-.54A2.17,2.17,0,0,0,511.24,227.77Z" transform="translate(-3 -2.5)"></path><path d="M572.56,231.74a10.24,10.24,0,0,1-2.9,7.47,9.89,9.89,0,0,1-7.38,3h-5.7a9.89,9.89,0,0,1-7.36-3,10.22,10.22,0,0,1-2.92-7.47,9.55,9.55,0,0,1,2.89-7.23,10.27,10.27,0,0,1,7.39-2.75h5.7a10.27,10.27,0,0,1,7.41,2.75A9.57,9.57,0,0,1,572.56,231.74ZM569,232a6.55,6.55,0,0,0-1.89-4.84,6.64,6.64,0,0,0-4.86-1.88h-5.7a6.47,6.47,0,0,0-6.72,6.72,6.27,6.27,0,0,0,1.9,4.75,6.64,6.64,0,0,0,4.82,1.82h5.7a6.72,6.72,0,0,0,4.86-1.82A6.3,6.3,0,0,0,569,232Z" transform="translate(-3 -2.5)"></path><path d="M634.38,242.2h-4l-3-14.28-6.84,13.17a2.1,2.1,0,0,1-1.91,1.35,2.26,2.26,0,0,1-2.09-1.38l-6.84-13.14-2.93,14.28h-4l4.56-18.73a2.75,2.75,0,0,1,.78-1.41,2,2,0,0,1,1.42-.59c.77,0,1.51.67,2.2,2l6.83,13.38,6.85-13.39c.7-1.34,1.44-2,2.21-2a2,2,0,0,1,1.44.62,3,3,0,0,1,.77,1.38Z" transform="translate(-3 -2.5)"></path><path d="M692.8,242.17l-4.59,0-3.41-5.71h-9.68l2.14-3.55h5.39L679.11,227l-9.2,15.15h-4.56l11.08-18.46a4.8,4.8,0,0,1,1.17-1.32,2.73,2.73,0,0,1,1.61-.69,2.63,2.63,0,0,1,1.61.66,4.71,4.71,0,0,1,1.17,1.35Z" transform="translate(-3 -2.5)"></path><path d="M743.3,240.41c0,1.31-.45,2-1.35,2a3.42,3.42,0,0,1-2.21-1.22L726.67,228v14.16h-3.53V223.53a2,2,0,0,1,.39-1.24,1.3,1.3,0,0,1,1.1-.53,3,3,0,0,1,2,1.05l13.08,13.11V221.76h3.55Z" transform="translate(-3 -2.5)"></path><path d="M780.63,242.17h-3.55V221.76h3.55Z" transform="translate(-3 -2.5)"></path><path d="M840,242.17l-4.59,0L832,236.43h-9.68l2.14-3.55h5.39L826.35,227l-9.2,15.15h-4.56l11.08-18.46a4.8,4.8,0,0,1,1.17-1.32,2.73,2.73,0,0,1,1.61-.69,2.63,2.63,0,0,1,1.61.66,4.53,4.53,0,0,1,1.16,1.35Z" transform="translate(-3 -2.5)"></path></svg>