<svg xmlns="http://www.w3.org/2000/svg" fill="#DDDDDD" viewBox="0 0 206 28"><path d="M30.5344 26.9732C29.3988 26.7502 27.6677 25.8883 26.8237 25.1259C25.7244 24.1326 24.9368 22.6437 24.6302 20.979L24.5144 20.3502L25.8508 20.0351C26.5858 19.8618 27.2119 19.7479 27.2422 19.7819C27.2724 19.8159 27.4255 20.2912 27.5824 20.838C27.9536 22.1316 29.1054 23.436 30.3779 24.0038C31.1509 24.3488 31.6088 24.4203 33.073 24.4247C34.6857 24.4297 34.9276 24.3846 35.8952 23.9008C36.7768 23.4599 37.0231 23.2314 37.3701 22.5317C37.7122 21.8419 37.7644 21.5433 37.6621 20.8611C37.4168 19.2252 36.1024 18.5462 32.4556 18.1715C28.5666 17.7718 26.4957 16.6277 25.7772 14.4817C25.5183 13.7084 25.5192 11.8638 25.7792 11.0948C26.5106 8.92923 28.8315 7.46835 31.8385 7.28077C34.8903 7.09039 37.6731 8.21429 39.0424 10.1902C39.5238 10.8848 40.3015 12.8507 40.1535 12.9988C40.0959 13.0564 37.7351 13.7195 37.4598 13.7554C37.4471 13.7574 37.3425 13.3845 37.2274 12.9276C36.7851 11.1712 34.799 9.87785 32.544 9.87785C29.7658 9.87785 27.972 11.4614 28.5531 13.401C28.9496 14.7244 30.3276 15.347 33.6412 15.6997C36.897 16.0463 38.389 16.6252 39.5639 17.9979C39.9002 18.3907 40.2727 19.0601 40.3918 19.4854C40.6959 20.5716 40.5534 22.8448 40.1261 23.7244C39.363 25.295 37.6261 26.509 35.4899 26.9646C34.419 27.193 31.6782 27.1978 30.5347 26.9736L30.5344 26.9732ZM52.5824 26.8848C49.5291 26.0637 47.0963 23.4314 46.3108 20.099C45.9612 18.6158 45.9558 15.3811 46.3007 14.057C46.8368 11.9986 48.225 10.0483 50.0486 8.79133C52.6109 7.02523 56.5856 6.75025 59.3536 8.1476C62.5705 9.77151 64.2057 12.5571 64.2057 16.4133V18.1681H56.5963H48.9868L49.087 19.1388C49.2933 21.1371 50.55 22.96 52.3068 23.8091C53.0133 24.1506 53.5371 24.2455 55.0334 24.3029C56.6286 24.3641 57.0303 24.3195 57.9295 23.9813C59.2274 23.493 60.3479 22.481 60.8291 21.3625L61.1967 20.508L62.4807 20.8552C63.1869 21.0462 63.8253 21.259 63.8993 21.328C64.1324 21.5454 62.9793 23.5985 62.0581 24.6065C61.0503 25.7091 59.2291 26.7041 57.6993 26.9877C56.347 27.2385 53.6997 27.1852 52.5824 26.8848H52.5824ZM61.207 14.8449C61.207 14.108 60.2289 12.2779 59.487 11.6265C59.1322 11.3149 58.4017 10.8535 57.8637 10.6012C57.0251 10.2079 56.6463 10.1424 55.2098 10.1424C53.7733 10.1424 53.3944 10.2079 52.5559 10.6012C52.0179 10.8535 51.2962 11.3072 50.9522 11.6092C50.2738 12.2048 49.3235 13.8541 49.1293 14.7726L49.0081 15.3459H55.1076H61.207V14.8449ZM77.082 26.898C73.6679 26.0659 71.1472 23.6317 70.2896 20.3388C69.9335 18.9718 69.9424 15.6346 70.3059 14.2248C71.1082 11.1129 73.3809 8.7872 76.7292 7.65163C78.217 7.14706 81.3664 7.18808 82.9471 7.73263C84.2753 8.19014 85.8939 9.29728 86.7561 10.3379C87.7598 11.5495 88.8309 14.0627 88.4891 14.4045C88.4338 14.4598 87.7917 14.6438 87.0623 14.8134L85.7362 15.1217L85.4731 14.2195C84.6637 11.4436 82.3922 9.92568 79.2912 10.0884C76.7543 10.2216 74.7821 11.5584 73.6752 13.8951C73.1332 15.0392 73.1132 15.1627 73.1132 17.3744C73.1132 19.4908 73.1495 19.7448 73.5842 20.6722C74.1841 21.9519 75.315 23.0828 76.6506 23.7386C77.6248 24.2169 77.8435 24.2535 79.7278 24.2535C81.6467 24.2535 81.8073 24.2252 82.7009 23.7303C83.9685 23.0282 84.9079 21.9183 85.403 20.5379C85.6269 19.9136 85.9051 19.4028 86.0212 19.4028C86.2577 19.4028 88.609 19.9349 88.6781 20.0041C88.8024 20.1283 88.0936 22.0801 87.6237 22.9078C86.4895 24.9057 84.6346 26.2926 82.2925 26.894C81.0164 27.2217 78.4179 27.2237 77.082 26.898L77.082 26.898ZM124.373 26.8847C121.604 26.1401 119.542 24.1151 118.394 21.0114C117.801 19.4108 117.649 16.1658 118.077 14.2445C118.975 10.2082 122.833 7.23716 127.176 7.23716C130.259 7.23716 133.009 8.69544 134.616 11.182C135.621 12.7375 135.996 14.1364 135.996 16.3346V18.1681H128.387H120.778L120.894 19.1823C121.119 21.1383 122.293 22.8409 124.057 23.771C124.912 24.2222 125.115 24.2535 127.176 24.2535C129.226 24.2535 129.444 24.2203 130.274 23.7821C131.316 23.2326 132.247 22.2579 132.701 21.242L133.023 20.5235L134.377 20.8762C135.122 21.0701 135.76 21.2506 135.796 21.2772C135.832 21.3038 135.615 21.8515 135.314 22.4942C134.67 23.8706 132.969 25.6653 131.763 26.2409C129.84 27.1584 126.479 27.4512 124.373 26.8847V26.8847ZM132.974 14.6234C132.554 12.7548 131.502 11.4479 129.778 10.6513C128.808 10.2034 128.475 10.1424 127 10.1424C125.556 10.1424 125.187 10.207 124.328 10.6094C122.654 11.3945 121.351 13.0245 120.931 14.8608L120.82 15.3458H126.978H133.136L132.974 14.6234V14.6234ZM166.84 26.8366C164.9 26.197 163.643 24.9428 162.767 22.7727C162.38 21.8127 162.366 21.5809 162.314 14.7726L162.259 7.76112H163.666H165.073L165.14 14.2434C165.212 21.2781 165.247 21.5475 166.26 22.876C167.083 23.9546 167.922 24.2535 170.127 24.2535C171.782 24.2535 172.171 24.1973 172.773 23.8715C173.788 23.3219 174.709 22.2948 175.277 21.0785L175.772 20.0201L175.824 13.8906L175.877 7.76112H177.368H178.858V17.1979V26.6347H177.359H175.86V24.959C175.86 23.6527 175.806 23.2833 175.617 23.2833C175.483 23.2833 175.275 23.5197 175.156 23.8087C174.812 24.6392 173.236 26.1148 172.164 26.6091C170.845 27.2181 168.323 27.3258 166.84 26.8366H166.84ZM93.4862 25.3118V23.9889H95.6028H97.7195V17.1979V10.4069H95.7792H93.8389V9.08402V7.76111H97.2785H100.718V8.99583C100.718 10.4636 100.958 10.5968 101.668 9.52364C102.997 7.51532 105.775 6.73514 108.548 7.59152C109.47 7.87637 109.906 8.14215 110.647 8.87034C111.161 9.37592 111.767 10.1864 111.993 10.6715C112.398 11.541 112.966 14.1959 112.804 14.4588C112.758 14.5331 112.223 14.6488 111.614 14.716C111.006 14.7832 110.329 14.8817 110.111 14.9348C109.758 15.0207 109.714 14.9647 109.714 14.4268C109.714 13.5225 109.233 12.0794 108.735 11.4874C107.716 10.2755 105.627 9.74619 103.831 10.2448C102.878 10.5094 101.736 11.7126 101.233 12.981C100.842 13.9694 100.817 14.2787 100.755 19.0059L100.689 23.9889H103.173H105.657V25.3118V26.6347H99.5716H93.4862L93.4862 25.3118ZM147.549 26.4646C147.355 26.3834 147.009 26.1391 146.78 25.9217C145.898 25.0844 145.874 24.852 145.874 17.38V10.4069H142.875H139.876V9.08402V7.76111H142.875H145.874V3.88055V0H147.373H148.872V3.88055V7.76111H152.488H156.104V9.08402V10.4069H152.488H148.872V16.9207C148.872 22.6072 148.907 23.4697 149.149 23.7117C149.379 23.9412 149.925 23.9889 152.324 23.9889H155.222V25.3118V26.6347L151.562 26.6235C149.549 26.6175 147.743 26.5459 147.549 26.4646V26.4646ZM185.738 17.1979V7.76111H187.237H188.736V8.81944C188.736 9.40152 188.814 9.87777 188.909 9.87777C189.004 9.87777 189.241 9.56487 189.436 9.18244C190.114 7.85346 191.611 7.11521 193.279 7.2873C194.492 7.41249 195.433 8.03968 195.993 9.0951C196.471 9.99566 196.691 10.0632 197.038 9.41554C197.441 8.66208 198.728 7.6479 199.587 7.40764C200.536 7.14179 202.218 7.25646 202.955 7.63721C203.747 8.04706 204.443 8.81712 204.899 9.78958L205.313 10.6715L205.315 18.6531L205.317 26.6347H203.915H202.513L202.46 19.2705C202.412 12.575 202.378 11.8535 202.09 11.3252C201.103 9.51807 198.423 9.65179 197.468 11.5558C197.135 12.2192 197.112 12.6663 197.065 19.4469L197.016 26.6347H195.522H194.028V19.3971C194.028 11.5881 194.014 11.4574 193.082 10.5979C192.748 10.2898 192.363 10.1523 191.693 10.102C190.485 10.0114 189.681 10.4413 189.138 11.4675C188.739 12.2211 188.737 12.2761 188.737 19.4305V26.6348H187.237H185.738V17.198L185.738 17.1979ZM8.11394 20.1305C8.11394 18.2493 8.18883 17.2946 8.37852 16.7569C8.69781 15.852 8.69626 15.9331 8.39642 15.8181C8.23222 15.7551 7.97008 16.0583 7.61207 16.7253C7.29048 17.3244 6.41287 18.3834 5.42867 19.36L3.783 20.993L2.8223 20.0202L1.8616 19.0474L3.53254 17.3668C4.45156 16.4424 5.62019 15.4501 6.12952 15.1617C6.63884 14.8732 7.05556 14.5718 7.05556 14.4918C7.05556 14.1753 6.81694 14.1487 6.13548 14.3891C5.63807 14.5646 4.60695 14.6403 2.71185 14.6403H0V13.3174V11.9944H2.71185C4.60695 11.9944 5.63807 12.07 6.13548 12.2456C6.80936 12.4833 7.05556 12.4589 7.05556 12.1544C7.05556 12.0807 6.63884 11.7803 6.12952 11.487C5.62019 11.1937 4.45156 10.1962 3.53254 9.27048L1.8616 7.58728L2.8223 6.6145L3.783 5.64172L5.41304 7.26497C6.40598 8.25378 7.25638 9.28844 7.58883 9.91217C7.88899 10.4753 8.20462 10.9361 8.29021 10.9361C8.60647 10.9361 8.63388 10.6017 8.3773 9.87437C8.18897 9.34061 8.11391 8.38015 8.11391 6.5042V3.88055H9.43684H10.7598V6.55001C10.7598 8.07543 10.6715 9.51416 10.5537 9.90706C10.405 10.4034 10.4012 10.6481 10.54 10.787C10.6789 10.9258 10.8816 10.7157 11.269 10.0316C11.5642 9.51045 12.5845 8.30946 13.5363 7.36279L15.2669 5.64155L16.2275 6.61432L17.1882 7.58708L15.6056 9.18455C14.6756 10.1232 13.5722 11.0361 12.9299 11.3982C12.181 11.8203 11.8676 12.0945 11.9345 12.269C12.053 12.5779 11.9702 12.5788 12.8764 12.259C13.4141 12.0693 14.3687 11.9944 16.25 11.9944L18.8736 11.9944V13.3173V14.6402H16.2558C14.5184 14.6402 13.3617 14.557 12.8162 14.3929C12.0699 14.1683 11.9945 14.1723 11.9951 14.437C11.9954 14.6086 12.3916 14.942 12.959 15.248C13.5066 15.5434 14.6271 16.4754 15.5554 17.4075L17.1884 19.0474L16.2276 20.0202L15.2669 20.9931L13.5363 19.2719C12.5845 18.3252 11.5642 17.1242 11.269 16.603C10.8816 15.9189 10.6789 15.7089 10.54 15.8477C10.4012 15.9865 10.405 16.2312 10.5537 16.7276C10.6715 17.1205 10.7597 18.5592 10.7597 20.0846L10.7598 22.7541H9.43684H8.11391L8.11394 20.1305Z"></path></svg>