<svg xmlns="http://www.w3.org/2000/svg" fill="#DDDDDD" viewBox="0 0 768.19 152.64"><path d="M260.54,129.64c-28.37,0-46.09-15.21-47.82-39h24.15c.47,12.39,8.62,20.38,23.2,20.38,12.07,0,20.7-5.33,20.7-14.42,0-7.21-5.49-11.29-15-13.17l-18.5-3.61C230.13,76.49,217,67.24,217,48.58c0-20.06,17.71-34.49,42-34.49,25.25,0,43.75,14.74,45.31,38.26H280.14c-.78-11.76-8.94-19.76-20.85-19.76-11.6,0-18.19,6.59-18.19,14.43s7.06,11,15.21,12.54l19.28,3.92C295.35,67.4,306,76.49,306,93.11,306,114.59,288.76,129.64,260.54,129.64Z"></path><path d="M358.37,129.48c-24.93,0-41.86-17.24-41.86-43.58,0-24.93,17.4-43.12,41.55-43.12,26.49,0,44.05,21.48,40.13,48.76h-59.1c.15,12.86,7.52,21.17,18.65,21.17,9.57,0,16.15-4.71,18.66-13h21.48C393.17,118.51,378.59,129.48,358.37,129.48ZM339.09,77.75H375c-.47-11.61-7.21-19-17.4-19C347.24,58.78,340,66.61,339.09,77.75Z"></path><path d="M448.83,129.48C423.9,129.48,407,112.24,407,85.9c0-24.93,17.4-43.12,41.55-43.12,26.49,0,44.05,21.48,40.13,48.76h-59.1c.15,12.86,7.52,21.17,18.65,21.17,9.57,0,16.15-4.71,18.66-13h21.48C483.64,118.51,469.06,129.48,448.83,129.48ZM429.55,77.75h35.9c-.47-11.61-7.21-19-17.4-19C437.7,58.78,430.49,66.61,429.55,77.75Z"></path><path d="M561.08,116c-6.58,8.78-15.67,13.64-26.49,13.64-22.58,0-37.16-19-37.16-43.43,0-24.77,14.58-43.43,37.16-43.43,9.88,0,18.5,4.39,24.77,12.39V15.5H581V128.07H561.08Zm-21.63-5.8c10.82,0,19.91-8.47,19.75-24.3S550,62.07,539.45,62.07c-10.66,0-19.6,8.15-19.6,24.14C519.85,101.89,528.79,110.2,539.45,110.2Z"></path><path d="M636,129.48c-24.92,0-41.86-17.24-41.86-43.58,0-24.93,17.41-43.12,41.55-43.12,26.49,0,44,21.48,40.13,48.76h-59.1c.16,12.86,7.52,21.17,18.66,21.17,9.56,0,16.14-4.71,18.65-13h21.48C670.83,118.51,656.25,129.48,636,129.48ZM616.74,77.75h35.9c-.47-11.61-7.21-19-17.4-19C624.89,58.78,617.68,66.61,616.74,77.75Z"></path><path d="M748.28,116c-6.59,8.78-15.68,13.64-26.5,13.64-22.58,0-37.16-19-37.16-43.43,0-24.77,14.58-43.43,37.16-43.43,9.88,0,18.5,4.39,24.77,12.39V15.5h21.64V128.07H748.28Zm-21.64-5.8c10.82,0,19.91-8.47,19.75-24.3s-9.25-23.83-19.75-23.83C716,62.07,707,70.22,707,86.21,707,101.89,716,110.2,726.64,110.2Z"></path><path class="cls-2" d="M146.64,46.61a76.36,76.36,0,1,0-70.32,106V132a10.8,10.8,0,0,0-8.79-10.58c-29.62-5.77-49.16-40.09-28.69-73a29.65,29.65,0,0,1,9.52-9.52c32.83-20.39,67-1.08,73,28.36a11.39,11.39,0,0,0,11.16,9.12h20.15A75.9,75.9,0,0,0,146.64,46.61Z"></path><path class="cls-3" d="M61.14,68.48v23H84.79a6.72,6.72,0,0,0,6.71-6.71V61.14h-23A7.34,7.34,0,0,0,61.14,68.48Z"></path></svg>